# xmcd
#
# Track frame offsets:
#	150
#	14260
#	29654
#	45448
#	63165
#	80760
#	91918
#	108574
#	121342
#	137288
#	152333
#
# Disc length: 2259 seconds
#
# Revision: 0
# Processed by: cddbd v1.5.1PL0 Copyright (c) Steve Scherf et al.
# Submitted via: dBpowerAMP V4.0
#
DISCID=7f08d10b
DTITLE=Lane Turner - Right On Time
DYEAR=1900
DGENRE=
TTITLE0=Outside Looking In
TTITLE1=Happy Hour
TTITLE2=Always Wanting More(Breathless)
TTITLE3=Smoke And Mirrors
TTITLE4=Right On Time
TTITLE5=If It Ain't One Thing(It's Another)
TTITLE6=Halfway To Mexico
TTITLE7=King Of Pain
TTITLE8=When Teardrops Were Roses
TTITLE9=Thinking Right This Time
TTITLE10=Little Book Of Matches
EXTD=
EXTT0=
EXTT1=
EXTT2=
EXTT3=
EXTT4=
EXTT5=
EXTT6=
EXTT7=
EXTT8=
EXTT9=
EXTT10=
PLAYORDER=
